<svg width="15" height="20" fill="none" xmlns="http://www.w3.org/2000/svg"><g filter="url(#filter0_d)" fill="#FF6B09"><path d="M13.693 10.37c-.177-.396-.421-.787-.779-1.239-.901-1.133-1.176-3.66-1.18-3.685a.305.305 0 00-.21-.257.31.31 0 00-.324.088c-1.076 1.203-.623 3.06-.38 3.803.068.203.141.442.193.685.398 1.96-.37 2.848-.55 3.027-.174.048-.293.024-.403-.094-.379-.415-.504-1.776-.327-3.549.037-.36.028-.684-.024-.987-.374-2.18-1.745-3.577-2.093-4.067-.96-1.418-1.058-3.779-1.06-3.8a.305.305 0 00-.477-.24c-1.601 1.088-1.464 3.71-1.24 5.173.051.34.152.685.326 1.121.62 1.561-.122 3.576-.128 3.594-.006.019-.013.034-.016.052-.094.497-.253.794-.43.794a.208.208 0 01-.058-.01c-.217-.045-.33-.275-.334-.475-.012-2.585-2.606-3.455-2.633-3.464a.304.304 0 00-.324.091.298.298 0 00-.043.334c.03.063.128.342.061 1.327-.058.885-.22 1.76-.48 2.6A12.668 12.668 0 00.267 15.2c.475 5.16 7.897 6.065 12.302 3.157a4.454 4.454 0 001.167-1.081c1.625-2.243.67-5.288-.043-6.906zM2.403 15.3c.009.168-.12.31-.287.32h-.019a.304.304 0 01-.305-.286c-.028-.442-.022-.906.012-1.409a.309.309 0 01.327-.282.305.305 0 01.284.325c-.034.478-.04.915-.012 1.333zm.15-2.684a.303.303 0 01-.303.267c-.012 0-.024 0-.04-.003a.306.306 0 01-.266-.337l.147-1.17a.308.308 0 01.342-.263.304.304 0 01.266.34l-.146 1.166zM11.626 4.146a.303.303 0 01-.255-.345c.019-.124.13-.754.429-1.07a.307.307 0 01.432-.015c.123.115.13.307.014.429-.127.134-.235.518-.271.748a.305.305 0 01-.349.253zM.487 5.655C.428 5.43.283 5.058.143 4.937a.301.301 0 01-.028-.428.307.307 0 01.431-.028c.33.287.501.903.533 1.024a.303.303 0 01-.22.368.306.306 0 01-.372-.218z"/></g><defs><filter id="filter0_d" x="-3.961" y=".002" width="22.589" height="27.996" filterUnits="userSpaceOnUse" color-interpolation-filters="sRGB"><feFlood flood-opacity="0" result="BackgroundImageFix"/><feColorMatrix in="SourceAlpha" values="0 0 0 0 0 0 0 0 0 0 0 0 0 0 0 0 0 0 127 0"/><feOffset dy="4"/><feGaussianBlur stdDeviation="2"/><feColorMatrix values="0 0 0 0 0 0 0 0 0 0 0 0 0 0 0 0 0 0 0.25 0"/><feBlend in2="BackgroundImageFix" result="effect1_dropShadow"/><feBlend in="SourceGraphic" in2="effect1_dropShadow" result="shape"/></filter></defs></svg>