<svg aria-hidden="true" style="position:absolute;width:0;height:0" xmlns="http://www.w3.org/2000/svg" overflow="hidden"><defs><symbol id="logo-big-white" viewBox="0 0 91 32"><path fill="var(--color1, #fff)" d="M13.608 4.836v12.942H9.947v-5.047H4.955v5.047H1.294V4.836h3.661v4.863h4.992V4.836h3.661zm13.398 7.95c0 .025-.018.314-.055.869h-7.285c.148.518.431.918.851 1.202.431.271.968.407 1.609.407.481 0 .894-.068 1.239-.203a3.63 3.63 0 001.072-.666l1.849 1.923c-.974 1.085-2.397 1.627-4.271 1.627-1.171 0-2.2-.222-3.088-.666s-1.578-1.06-2.071-1.849c-.481-.789-.721-1.683-.721-2.681 0-.986.234-1.867.703-2.644.481-.789 1.14-1.405 1.978-1.849s1.781-.666 2.829-.666c.998 0 1.904.21 2.718.629a4.58 4.58 0 011.923 1.793c.481.777.721 1.701.721 2.773zm-5.343-2.7c-.542 0-.998.154-1.368.462-.357.308-.586.727-.684 1.257h4.105c-.099-.53-.333-.949-.703-1.257-.357-.308-.807-.462-1.35-.462zm7.702-6.027h3.513v13.719h-3.513V4.059zm6.536 0h3.513v13.719h-3.513V4.059z"/><path fill="var(--color2, #ff6b09)" d="M4.614 29.724H2.765l-.353.853h-.944l1.775-3.982h.91l1.781 3.982h-.967l-.353-.853zm-.29-.699L3.693 27.5l-.631 1.525h1.263zm7.302.802v1.576h-.853v-.825h-2.81v.825H7.11l.006-1.576h.159c.239-.008.408-.182.506-.523s.159-.829.182-1.462l.045-1.246h3.061v3.231h.557zm-2.85-1.9a8.56 8.56 0 01-.119 1.195c-.061.319-.154.554-.279.705h1.781v-2.48H8.794l-.017.58zm6.378 2.719c-.406 0-.774-.087-1.104-.262a2.03 2.03 0 01-.774-.734c-.186-.315-.279-.669-.279-1.064s.093-.747.279-1.058a1.98 1.98 0 01.774-.734 2.3 2.3 0 011.109-.267c.345 0 .656.061.933.182.281.121.516.296.705.523l-.592.546a1.271 1.271 0 00-1.001-.466c-.246 0-.466.055-.66.165a1.155 1.155 0 00-.455.449c-.106.193-.159.413-.159.66s.053.466.159.66c.11.193.262.345.455.455.193.106.413.159.66.159.398 0 .732-.157 1.001-.472l.592.546c-.19.231-.425.408-.705.529s-.594.182-.939.182zm4.81-1.672h-.637v1.604h-.916v-3.982h.916v1.61h.66l1.047-1.61h.973l-1.303 1.923 1.343 2.059H21l-1.035-1.604zm3.538-2.378h.916v2.594l1.9-2.594h.865v3.982h-.91V27.99l-1.9 2.588h-.87v-3.982zm5.696 0h.916v2.594l1.9-2.594h.865v3.982h-.91V27.99l-1.9 2.588h-.87v-3.982zm1.838-.256c-.728 0-1.096-.29-1.104-.87h.631c.008.277.165.415.472.415.152 0 .267-.034.347-.102.08-.072.121-.176.125-.313h.631c-.004.284-.097.501-.279.649s-.457.222-.825.222z"/><path fill="var(--color1, #fff)" d="M40.226 29.724h-1.849l-.353.853h-.944l1.775-3.982h.91l1.781 3.982h-.967l-.353-.853zm-.29-.699l-.631-1.525-.631 1.525h1.263zm6.814-2.429v3.982h-.922v-1.633h-1.809v1.633h-.922v-3.982h.922v1.57h1.809v-1.57h.922zm4.827.75h-1.894l.006 3.231h-.916v-3.982h2.81l-.006.751zm4.647-.75v3.982h-.91v-3.231h-1.365l-.028.831a8.564 8.564 0 01-.137 1.377c-.072.349-.193.618-.364.808-.167.186-.402.279-.705.279-.125 0-.277-.021-.455-.063l.057-.779a.562.562 0 00.165.023c.22 0 .374-.129.461-.387.087-.262.142-.669.165-1.223l.057-1.616h3.061zm2.018 0h.916v2.594l1.9-2.594h.865v3.982h-.91V27.99l-1.9 2.588h-.87v-3.982zm5.696 0h.916v2.594l1.9-2.594h.865v3.982h-.91V27.99l-1.9 2.588h-.87v-3.982zm1.838-.256c-.728 0-1.096-.29-1.104-.87h.631c.008.277.165.415.472.415.152 0 .267-.034.347-.102.08-.072.121-.176.125-.313h.631c-.004.284-.097.501-.279.649s-.457.222-.825.222zm5.742 4.306c-.406 0-.774-.087-1.104-.262a2.03 2.03 0 01-.774-.734c-.186-.315-.279-.669-.279-1.064s.093-.747.279-1.058a1.98 1.98 0 01.774-.734 2.3 2.3 0 011.109-.267c.345 0 .656.061.933.182.28.121.516.296.705.523l-.592.546a1.271 1.271 0 00-1.001-.466 1.31 1.31 0 00-.66.165 1.155 1.155 0 00-.455.449c-.106.193-.159.413-.159.66s.053.466.159.66c.11.193.262.345.455.455.193.106.413.159.66.159.398 0 .732-.157 1.001-.472l.592.546c-.19.231-.425.408-.705.529s-.594.182-.939.182zm4.811-1.672h-.637v1.604h-.916v-3.982h.916v1.61h.66l1.047-1.61h.973l-1.303 1.923 1.343 2.059h-1.047l-1.035-1.604zm3.537-2.378h.916v2.594l1.9-2.594h.865v3.982h-.91V27.99l-1.9 2.588h-.87v-3.982zm5.696 0h.916v2.594l1.9-2.594h.865v3.982h-.91V27.99l-1.9 2.588h-.87v-3.982zm1.838-.256c-.728 0-1.096-.29-1.104-.87h.631c.008.277.165.415.472.415.151 0 .267-.034.347-.102.08-.072.122-.176.125-.313h.631c-.004.284-.097.501-.279.649s-.457.222-.825.222zM74.263 14.949v2.829H63.872V4.836h10.15v2.829h-6.527v2.182h5.75v2.736h-5.75v2.367h6.767zM89.348 4.836v12.942h-3.014l-5.713-6.896v6.896h-3.587V4.836h3.014l5.713 6.896V4.836h3.587z"/><path fill="var(--color2, #ff6b09)" d="M58.695 11.062c-.189-.423-.45-.84-.831-1.322-.962-1.209-1.255-3.905-1.258-3.931a.326.326 0 00-.225-.275.33.33 0 00-.345.094c-1.147 1.283-.665 3.265-.404 4.057.072.217.15.472.205.731.424 2.091-.394 3.038-.587 3.229-.186.052-.313.026-.43-.1-.404-.443-.538-1.894-.349-3.785a3.89 3.89 0 00-.026-1.054c-.399-2.324-1.86-3.815-2.233-4.338C51.189 2.855 51.084.337 51.081.315a.324.324 0 00-.508-.255c-1.708 1.16-1.561 3.956-1.323 5.518.055.362.163.731.349 1.196.662 1.665-.13 3.814-.137 3.834s-.013.036-.016.055c-.101.53-.27.847-.46.847a.205.205 0 01-.062-.01c-.231-.048-.352-.294-.355-.507-.013-2.757-2.78-3.685-2.81-3.694a.323.323 0 00-.345.097.32.32 0 00-.046.356c.033.068.137.365.065 1.416a12.072 12.072 0 01-.512 2.773 13.547 13.547 0 00-.548 4.276c.506 5.505 8.423 6.469 13.122 3.368a4.742 4.742 0 001.245-1.154c1.734-2.392.714-5.64-.046-7.366zm-12.043 5.259a.322.322 0 01-.306.339h-.02a.324.324 0 01-.326-.304c-.029-.472-.023-.966.013-1.503a.326.326 0 01.652.045c-.036.511-.042.976-.013 1.422zm.159-2.864a.323.323 0 01-.323.284c-.013 0-.026 0-.042-.003a.327.327 0 01-.284-.359l.156-1.248a.328.328 0 01.649.081l-.156 1.244zM56.489 4.422a.322.322 0 01-.272-.368c.02-.131.138-.804.458-1.142.123-.13.329-.137.461-.015s.138.327.015.457c-.135.143-.251.553-.289.798a.327.327 0 01-.372.27zM44.608 6.032c-.062-.24-.217-.637-.366-.766-.135-.118-.149-.322-.03-.456s.324-.148.46-.03c.351.305.535.963.568 1.092a.322.322 0 01-.235.393.327.327 0 01-.397-.232z"/></symbol><symbol id="logo-big-black" viewBox="0 0 91 32"><path fill="var(--color3, #111518)" d="M13.608 4.836v12.942H9.947v-5.047H4.955v5.047H1.294V4.836h3.661v4.863h4.992V4.836h3.661zm13.398 7.95c0 .025-.018.314-.055.869h-7.285c.148.518.431.918.851 1.202.431.271.968.407 1.609.407.481 0 .894-.068 1.239-.203a3.63 3.63 0 001.072-.666l1.849 1.923c-.974 1.085-2.397 1.627-4.271 1.627-1.171 0-2.2-.222-3.088-.666s-1.578-1.06-2.071-1.849c-.481-.789-.721-1.683-.721-2.681 0-.986.234-1.867.703-2.644.481-.789 1.14-1.405 1.978-1.849s1.781-.666 2.829-.666c.998 0 1.904.21 2.718.629a4.58 4.58 0 011.923 1.793c.481.777.721 1.701.721 2.773zm-5.343-2.7c-.542 0-.998.154-1.368.462-.357.308-.586.727-.684 1.257h4.105c-.099-.53-.333-.949-.703-1.257-.357-.308-.807-.462-1.35-.462zm7.702-6.027h3.513v13.719h-3.513V4.059zm6.536 0h3.513v13.719h-3.513V4.059zM8.182 26.596v3.982H7.26v-1.633H5.451v1.633h-.922v-3.982h.922v1.57H7.26v-1.57h.922zm5.049 3.242v.74h-3.083v-3.982h3.009v.74h-2.094v.865h1.849v.717h-1.849v.922h2.167zm1.758-3.242h.922v3.231h1.997v.751H14.99v-3.982zm4.457 0h.922v3.231h1.997v.751h-2.918v-3.982zm4.457 0h.922v3.982h-.922v-3.982zm4.199 4.05c-.315 0-.62-.042-.916-.125a2.163 2.163 0 01-.705-.336l.313-.694c.171.125.374.226.609.302s.47.114.705.114c.262 0 .455-.038.58-.114.125-.08.188-.184.188-.313a.284.284 0 00-.114-.233.79.79 0 00-.284-.154 5.18 5.18 0 00-.466-.125c-.303-.072-.552-.144-.745-.216s-.36-.188-.501-.347c-.137-.159-.205-.372-.205-.637 0-.231.063-.44.188-.626.125-.19.313-.339.563-.449.254-.11.563-.165.927-.165.254 0 .503.03.745.091s.455.148.637.262l-.284.7a2.218 2.218 0 00-1.104-.313c-.258 0-.449.042-.575.125-.121.083-.182.193-.182.33s.07.239.21.307c.144.064.362.129.654.193.303.072.552.144.745.216s.358.186.495.341c.14.156.21.366.21.631 0 .228-.064.436-.193.626-.125.186-.315.334-.569.444s-.563.165-.927.165zm6.996-4.05v3.982h-.922v-1.633h-1.809v1.633h-.922v-3.982h.922v1.57h1.809v-1.57h.922zm4.794.75h-1.894l.006 3.231h-.916v-3.982h2.81l-.006.751zm4.652 2.492v.74h-3.083v-3.982h3.009v.74h-2.093v.865h1.849v.717h-1.849v.922h2.167zm5.409-3.242v3.982h-.757l-1.985-2.418v2.418h-.91v-3.982h.762l1.98 2.418v-2.418h.91zm4.657 1.928h.842v1.616c-.216.163-.467.288-.751.375s-.571.131-.859.131c-.413 0-.785-.087-1.115-.262a2.01 2.01 0 01-.779-.734c-.186-.315-.279-.669-.279-1.064s.093-.747.279-1.058c.19-.315.451-.559.785-.734a2.355 2.355 0 011.126-.267c.349 0 .666.059.95.176s.523.288.717.512l-.592.546a1.367 1.367 0 00-1.03-.449c-.254 0-.48.053-.677.159s-.351.256-.461.449c-.11.193-.165.415-.165.666 0 .247.055.466.165.66s.262.345.455.455c.197.106.421.159.671.159.265 0 .504-.057.717-.171v-1.166zm2.722-1.928h.922v3.231h1.997v.751h-2.918v-3.982zm4.458 0h.922v3.982h-.922v-3.982zm4.199 4.05c-.315 0-.62-.042-.916-.125a2.163 2.163 0 01-.705-.336l.313-.694c.171.125.374.226.609.302s.47.114.705.114c.262 0 .455-.038.58-.114.125-.08.188-.184.188-.313a.284.284 0 00-.114-.233.79.79 0 00-.284-.154 5.18 5.18 0 00-.466-.125c-.303-.072-.552-.144-.745-.216s-.36-.188-.501-.347c-.137-.159-.205-.372-.205-.637 0-.231.063-.44.188-.626.125-.19.313-.339.563-.449.254-.11.563-.165.927-.165.254 0 .503.03.745.091s.455.148.637.262l-.284.7a2.218 2.218 0 00-1.104-.313c-.258 0-.449.042-.575.125-.121.083-.182.193-.182.33s.07.239.21.307c.144.064.362.129.654.193.303.072.552.144.745.216s.358.186.495.341c.14.156.21.366.21.631 0 .228-.064.436-.193.626-.125.186-.315.334-.569.444s-.563.165-.927.165zm6.995-4.05v3.982h-.922v-1.633h-1.809v1.633h-.922v-3.982h.922v1.57h1.809v-1.57h.922zM74.263 14.949v2.829H63.872V4.836h10.15v2.829h-6.527v2.182h5.75v2.736h-5.75v2.367h6.767zM89.348 4.836v12.942h-3.014l-5.713-6.896v6.896h-3.587V4.836h3.014l5.713 6.896V4.836h3.587z"/><path fill="var(--color2, #ff6b09)" d="M58.695 11.062c-.189-.423-.45-.84-.831-1.322-.962-1.209-1.255-3.905-1.258-3.931a.326.326 0 00-.225-.275.33.33 0 00-.345.094c-1.147 1.283-.665 3.265-.404 4.057.072.217.15.472.205.731.424 2.091-.394 3.038-.587 3.229-.186.052-.313.026-.43-.1-.404-.443-.538-1.894-.349-3.785a3.89 3.89 0 00-.026-1.054c-.399-2.324-1.86-3.815-2.233-4.338C51.189 2.855 51.084.337 51.081.315a.324.324 0 00-.508-.255c-1.708 1.16-1.561 3.956-1.323 5.518.055.362.163.731.349 1.196.662 1.665-.13 3.814-.137 3.834s-.013.036-.016.055c-.101.53-.27.847-.46.847a.205.205 0 01-.062-.01c-.231-.048-.352-.294-.355-.507-.013-2.757-2.78-3.685-2.81-3.694a.323.323 0 00-.345.097.32.32 0 00-.046.356c.033.068.137.365.065 1.416a12.072 12.072 0 01-.512 2.773 13.547 13.547 0 00-.548 4.276c.506 5.505 8.423 6.469 13.122 3.368a4.742 4.742 0 001.245-1.154c1.734-2.392.714-5.64-.046-7.366zm-12.043 5.259a.322.322 0 01-.306.339h-.02a.324.324 0 01-.326-.304c-.029-.472-.023-.966.013-1.503a.326.326 0 01.652.045c-.036.511-.042.976-.013 1.422zm.159-2.864a.323.323 0 01-.323.284c-.013 0-.026 0-.042-.003a.327.327 0 01-.284-.359l.156-1.248a.328.328 0 01.649.081l-.156 1.244zM56.489 4.422a.322.322 0 01-.272-.368c.02-.131.138-.804.458-1.142.123-.13.329-.137.461-.015s.138.327.015.457c-.135.143-.251.553-.289.798a.327.327 0 01-.372.27zM44.608 6.032c-.062-.24-.217-.637-.366-.766-.135-.118-.149-.322-.03-.456s.324-.148.46-.03c.351.305.535.963.568 1.092a.322.322 0 01-.235.393.327.327 0 01-.397-.232z"/></symbol><symbol id="logo-small-white" viewBox="0 0 85 32"><path fill="var(--color1, #fff)" d="M11.933 4.686v12.542H8.385v-4.892H3.547v4.892H-.001V4.686h3.548v4.712h4.838V4.686h3.548zM24.918 12.391c0 .024-.018.305-.054.842h-7.06c.143.502.418.89.824 1.165.418.263.938.394 1.559.394.466 0 .866-.066 1.2-.197a3.51 3.51 0 001.039-.645l1.792 1.863c-.944 1.051-2.323 1.577-4.139 1.577-1.135 0-2.132-.215-2.992-.645s-1.529-1.027-2.007-1.792c-.466-.764-.699-1.63-.699-2.598 0-.956.227-1.81.681-2.562.466-.764 1.105-1.362 1.917-1.792s1.726-.645 2.741-.645c.968 0 1.846.203 2.634.609a4.43 4.43 0 011.863 1.738c.466.753.699 1.648.699 2.688zm-5.179-2.616c-.526 0-.968.149-1.326.448-.346.299-.567.705-.663 1.218h3.978c-.096-.514-.323-.92-.681-1.218-.346-.299-.782-.448-1.308-.448zM27.204 3.934h3.404v13.295h-3.404V3.934zM33.538 3.934h3.404v13.295h-3.404V3.934z"/><path fill="var(--color2, #ff6b09)" d="M3.867 26.282v3.733h-.864v-1.531H1.307v1.531H.443v-3.733h.864v1.472h1.696v-1.472h.864zm4.734 3.04v.693H5.71v-3.733h2.821v.693H6.568v.811h1.733v.672H6.568v.864H8.6zm1.647-3.04h.864v3.029h1.872v.704h-2.736v-3.733zm4.179 0h.864v3.029h1.872v.704h-2.736v-3.733zm4.179 0h.864v3.733h-.864v-3.733zm3.936 3.798c-.295 0-.581-.039-.859-.117a2.045 2.045 0 01-.661-.315l.293-.651c.16.117.35.212.571.283s.441.107.661.107c.245 0 .427-.036.544-.107.117-.075.176-.172.176-.293a.269.269 0 00-.107-.219.743.743 0 00-.267-.144 4.67 4.67 0 00-.437-.117c-.284-.068-.517-.135-.699-.203s-.338-.176-.469-.325c-.128-.149-.192-.348-.192-.597 0-.217.059-.412.176-.587.117-.178.293-.318.528-.421.238-.103.528-.155.869-.155.238 0 .471.028.699.085s.427.139.597.245l-.267.656a2.078 2.078 0 00-1.035-.293c-.242 0-.421.039-.539.117-.114.078-.171.181-.171.309s.066.224.197.288c.135.06.34.121.613.181.284.068.517.135.699.203s.336.174.464.32c.132.146.197.343.197.592 0 .213-.06.409-.181.587-.117.174-.295.313-.533.416s-.528.155-.869.155zm6.559-3.798v3.733h-.864v-1.531h-1.696v1.531h-.864v-3.733h.864v1.472h1.696v-1.472h.864z"/><path fill="var(--color1, #fff)" d="M36.305 29.322v.693h-2.891v-3.733h2.821v.693h-1.963v.811h1.733v.672h-1.733v.864h2.032zm5.071-3.04v3.733h-.709l-1.861-2.267v2.267h-.853v-3.733h.715l1.856 2.267v-2.267h.853zm4.366 1.808h.789v1.515c-.203.153-.437.27-.704.352s-.535.123-.805.123c-.388 0-.736-.082-1.045-.245a1.892 1.892 0 01-.731-.688c-.174-.295-.261-.628-.261-.997s.087-.7.261-.992c.178-.295.423-.524.736-.688a2.208 2.208 0 011.056-.251c.327 0 .624.055.891.165s.491.27.672.48l-.555.512a1.282 1.282 0 00-.965-.421c-.238 0-.45.05-.635.149s-.329.24-.432.421-.155.389-.155.624c0 .231.052.437.155.619s.245.324.427.427c.185.1.395.149.629.149.249 0 .473-.053.672-.16v-1.093zm2.552-1.808h.864v3.029h1.872v.704h-2.736v-3.733zm4.179 0h.864v3.733h-.864v-3.733zm3.937 3.798c-.295 0-.581-.039-.859-.117a2.045 2.045 0 01-.661-.315l.293-.651c.16.117.35.212.571.283s.441.107.661.107c.245 0 .427-.036.544-.107.117-.075.176-.172.176-.293a.269.269 0 00-.107-.219.743.743 0 00-.267-.144 4.67 4.67 0 00-.437-.117c-.284-.068-.517-.135-.699-.203s-.338-.176-.469-.325c-.128-.149-.192-.348-.192-.597 0-.217.059-.412.176-.587.117-.178.293-.318.528-.421.238-.103.528-.155.869-.155.238 0 .471.028.699.085s.427.139.597.245l-.267.656a2.078 2.078 0 00-1.035-.293c-.242 0-.421.039-.539.117-.114.078-.171.181-.171.309s.066.224.197.288c.135.06.34.121.613.181.284.068.517.135.699.203s.336.174.464.32c.132.146.197.343.197.592 0 .213-.06.409-.181.587-.117.174-.295.313-.533.416s-.528.155-.869.155zm6.558-3.798v3.733h-.864v-1.531h-1.696v1.531h-.864v-3.733h.864v1.472h1.696v-1.472h.864zM70.715 14.487v2.741h-10.07V4.685h9.837v2.741h-6.325V9.54h5.572v2.652h-5.572v2.294h6.558zM85.333 4.686v12.543h-2.921l-5.537-6.683v6.683h-3.476V4.686h2.921l5.537 6.683V4.686h3.476z"/><path fill="var(--color2, #ff6b09)" d="M55.627 10.72c-.183-.41-.436-.814-.805-1.281-.932-1.172-1.216-3.784-1.219-3.809a.315.315 0 00-.218-.266.32.32 0 00-.335.091c-1.112 1.244-.644 3.164-.392 3.931.07.21.145.457.199.708.411 2.027-.382 2.945-.569 3.129-.18.05-.303.025-.417-.097-.392-.429-.521-1.836-.338-3.668a3.772 3.772 0 00-.025-1.021c-.386-2.252-1.803-3.697-2.164-4.204-.992-1.466-1.093-3.906-1.096-3.928a.315.315 0 00-.493-.247c-1.655 1.125-1.513 3.834-1.282 5.347.054.351.158.708.338 1.159.641 1.613-.126 3.696-.133 3.715s-.013.034-.016.053c-.098.514-.262.821-.445.821a.224.224 0 01-.06-.009c-.224-.047-.341-.285-.344-.492-.013-2.672-2.694-3.571-2.723-3.58a.314.314 0 00-.335.094.309.309 0 00-.044.345c.032.066.133.354.063 1.372-.06.915-.228 1.82-.496 2.688a13.111 13.111 0 00-.531 4.144c.491 5.335 8.163 6.27 12.716 3.264a4.608 4.608 0 001.206-1.118c1.68-2.318.692-5.466-.044-7.139zm-11.671 5.097a.314.314 0 01-.297.329h-.019a.315.315 0 01-.316-.294c-.028-.457-.022-.937.013-1.457a.318.318 0 01.338-.291.316.316 0 01.294.335c-.035.495-.041.946-.013 1.378zm.155-2.776a.314.314 0 01-.313.276c-.013 0-.025 0-.041-.003a.316.316 0 01-.275-.348l.152-1.209a.32.32 0 01.354-.273.315.315 0 01.275.351l-.152 1.206zM53.491 4.286a.314.314 0 01-.264-.357c.02-.127.134-.779.444-1.106.119-.126.319-.133.447-.014s.134.316.014.443c-.131.139-.243.536-.28.773a.315.315 0 01-.36.261zM41.976 5.846c-.06-.233-.211-.617-.355-.743-.131-.114-.144-.312-.029-.442s.314-.144.446-.029c.34.296.518.933.55 1.058a.313.313 0 01-.227.381.318.318 0 01-.385-.225z"/></symbol><symbol id="logo-small-black" viewBox="0 0 85 32"><path d="M11.933 4.686v12.542H8.385v-4.892H3.547v4.892H-.001V4.686h3.548v4.712h4.838V4.686h3.548zM24.918 12.391c0 .024-.018.305-.054.842h-7.06c.143.502.418.89.824 1.165.418.263.938.394 1.559.394.466 0 .866-.066 1.2-.197a3.51 3.51 0 001.039-.645l1.792 1.863c-.944 1.051-2.323 1.577-4.139 1.577-1.135 0-2.132-.215-2.992-.645s-1.529-1.027-2.007-1.792c-.466-.764-.699-1.63-.699-2.598 0-.956.227-1.81.681-2.562.466-.764 1.105-1.362 1.917-1.792s1.726-.645 2.741-.645c.968 0 1.846.203 2.634.609a4.43 4.43 0 011.863 1.738c.466.753.699 1.648.699 2.688zm-5.179-2.616c-.526 0-.968.149-1.326.448-.346.299-.567.705-.663 1.218h3.978c-.096-.514-.323-.92-.681-1.218-.346-.299-.782-.448-1.308-.448zM27.204 3.934h3.404v13.295h-3.404V3.934zM33.538 3.934h3.404v13.295h-3.404V3.934z"/><path fill="var(--color2, #ff6b09)" d="M3.867 26.282v3.733h-.864v-1.531H1.307v1.531H.443v-3.733h.864v1.472h1.696v-1.472h.864zm4.734 3.04v.693H5.71v-3.733h2.821v.693H6.568v.811h1.733v.672H6.568v.864H8.6zm1.647-3.04h.864v3.029h1.872v.704h-2.736v-3.733zm4.179 0h.864v3.029h1.872v.704h-2.736v-3.733zm4.179 0h.864v3.733h-.864v-3.733zm3.936 3.798c-.295 0-.581-.039-.859-.117a2.045 2.045 0 01-.661-.315l.293-.651c.16.117.35.212.571.283s.441.107.661.107c.245 0 .427-.036.544-.107.117-.075.176-.172.176-.293a.269.269 0 00-.107-.219.743.743 0 00-.267-.144 4.67 4.67 0 00-.437-.117c-.284-.068-.517-.135-.699-.203s-.338-.176-.469-.325c-.128-.149-.192-.348-.192-.597 0-.217.059-.412.176-.587.117-.178.293-.318.528-.421.238-.103.528-.155.869-.155.238 0 .471.028.699.085s.427.139.597.245l-.267.656a2.078 2.078 0 00-1.035-.293c-.242 0-.421.039-.539.117-.114.078-.171.181-.171.309s.066.224.197.288c.135.06.34.121.613.181.284.068.517.135.699.203s.336.174.464.32c.132.146.197.343.197.592 0 .213-.06.409-.181.587-.117.174-.295.313-.533.416s-.528.155-.869.155zm6.559-3.798v3.733h-.864v-1.531h-1.696v1.531h-.864v-3.733h.864v1.472h1.696v-1.472h.864z"/><path d="M36.305 29.322v.693h-2.891v-3.733h2.821v.693h-1.963v.811h1.733v.672h-1.733v.864h2.032zm5.071-3.04v3.733h-.709l-1.861-2.267v2.267h-.853v-3.733h.715l1.856 2.267v-2.267h.853zm4.366 1.808h.789v1.515c-.203.153-.437.27-.704.352s-.535.123-.805.123c-.388 0-.736-.082-1.045-.245a1.892 1.892 0 01-.731-.688c-.174-.295-.261-.628-.261-.997s.087-.7.261-.992c.178-.295.423-.524.736-.688a2.208 2.208 0 011.056-.251c.327 0 .624.055.891.165s.491.27.672.48l-.555.512a1.282 1.282 0 00-.965-.421c-.238 0-.45.05-.635.149s-.329.24-.432.421-.155.389-.155.624c0 .231.052.437.155.619s.245.324.427.427c.185.1.395.149.629.149.249 0 .473-.053.672-.16v-1.093zm2.552-1.808h.864v3.029h1.872v.704h-2.736v-3.733zm4.179 0h.864v3.733h-.864v-3.733zm3.937 3.798c-.295 0-.581-.039-.859-.117a2.045 2.045 0 01-.661-.315l.293-.651c.16.117.35.212.571.283s.441.107.661.107c.245 0 .427-.036.544-.107.117-.075.176-.172.176-.293a.269.269 0 00-.107-.219.743.743 0 00-.267-.144 4.67 4.67 0 00-.437-.117c-.284-.068-.517-.135-.699-.203s-.338-.176-.469-.325c-.128-.149-.192-.348-.192-.597 0-.217.059-.412.176-.587.117-.178.293-.318.528-.421.238-.103.528-.155.869-.155.238 0 .471.028.699.085s.427.139.597.245l-.267.656a2.078 2.078 0 00-1.035-.293c-.242 0-.421.039-.539.117-.114.078-.171.181-.171.309s.066.224.197.288c.135.06.34.121.613.181.284.068.517.135.699.203s.336.174.464.32c.132.146.197.343.197.592 0 .213-.06.409-.181.587-.117.174-.295.313-.533.416s-.528.155-.869.155zm6.558-3.798v3.733h-.864v-1.531h-1.696v1.531h-.864v-3.733h.864v1.472h1.696v-1.472h.864zM70.715 14.487v2.741h-10.07V4.685h9.837v2.741h-6.325V9.54h5.572v2.652h-5.572v2.294h6.558zM85.333 4.686v12.543h-2.921l-5.537-6.683v6.683h-3.476V4.686h2.921l5.537 6.683V4.686h3.476z"/><path fill="var(--color2, #ff6b09)" d="M55.627 10.72c-.183-.41-.436-.814-.805-1.281-.932-1.172-1.216-3.784-1.219-3.809a.315.315 0 00-.218-.266.32.32 0 00-.335.091c-1.112 1.244-.644 3.164-.392 3.931.07.21.145.457.199.708.411 2.027-.382 2.945-.569 3.129-.18.05-.303.025-.417-.097-.392-.429-.521-1.836-.338-3.668a3.772 3.772 0 00-.025-1.021c-.386-2.252-1.803-3.697-2.164-4.204-.992-1.466-1.093-3.906-1.096-3.928a.315.315 0 00-.493-.247c-1.655 1.125-1.513 3.834-1.282 5.347.054.351.158.708.338 1.159.641 1.613-.126 3.696-.133 3.715s-.013.034-.016.053c-.098.514-.262.821-.445.821a.224.224 0 01-.06-.009c-.224-.047-.341-.285-.344-.492-.013-2.672-2.694-3.571-2.723-3.58a.314.314 0 00-.335.094.309.309 0 00-.044.345c.032.066.133.354.063 1.372-.06.915-.228 1.82-.496 2.688a13.111 13.111 0 00-.531 4.144c.491 5.335 8.163 6.27 12.716 3.264a4.608 4.608 0 001.206-1.118c1.68-2.318.692-5.466-.044-7.139zm-11.671 5.097a.314.314 0 01-.297.329h-.019a.315.315 0 01-.316-.294c-.028-.457-.022-.937.013-1.457a.318.318 0 01.338-.291.316.316 0 01.294.335c-.035.495-.041.946-.013 1.378zm.155-2.776a.314.314 0 01-.313.276c-.013 0-.025 0-.041-.003a.316.316 0 01-.275-.348l.152-1.209a.32.32 0 01.354-.273.315.315 0 01.275.351l-.152 1.206zM53.491 4.286a.314.314 0 01-.264-.357c.02-.127.134-.779.444-1.106.119-.126.319-.133.447-.014s.134.316.014.443c-.131.139-.243.536-.28.773a.315.315 0 01-.36.261zM41.976 5.846c-.06-.233-.211-.617-.355-.743-.131-.114-.144-.312-.029-.442s.314-.144.446-.029c.34.296.518.933.55 1.058a.313.313 0 01-.227.381.318.318 0 01-.385-.225z"/></symbol><symbol id="icon-campfire-bg" viewBox="0 0 28 32"><path d="M28.799 21.831c-.373-.836-.887-1.659-1.639-2.609-1.896-2.386-2.474-7.706-2.481-7.757a.642.642 0 00-.443-.542.65.65 0 00-.681.185c-2.262 2.533-1.311 6.443-.797 8.006.141.427.296.931.405 1.442.835 4.127-.778 5.996-1.157 6.373-.366.102-.617.051-.848-.198-.797-.874-1.06-3.738-.688-7.47a7.66 7.66 0 00-.051-2.08c-.786-4.587-3.668-7.529-4.402-8.561-2.018-2.985-2.224-7.955-2.23-7.999a.641.641 0 00-1.002-.504c-3.368 2.29-3.078 7.808-2.609 10.889.109.714.321 1.442.688 2.36 1.305 3.285-.257 7.527-.27 7.566s-.026.07-.032.108c-.199 1.046-.533 1.671-.906 1.671a.428.428 0 01-.122-.019c-.456-.096-.694-.581-.7-1.002-.026-5.441-5.482-7.272-5.54-7.291a.64.64 0 00-.681.191.629.629 0 00-.09.702c.064.134.27.721.129 2.794a23.848 23.848 0 01-1.009 5.473C.345 27.795.55 31.807.563 31.998c.998 10.864 16.609 12.768 25.873 6.647 1.015-.67 1.844-1.435 2.455-2.277 3.419-4.721 1.407-11.131-.09-14.538zM5.053 32.21a.637.637 0 01-.604.67H4.41a.64.64 0 01-.643-.6 22.933 22.933 0 01.026-2.966.645.645 0 011.286.09 20.55 20.55 0 00-.026 2.807zm.315-5.652a.638.638 0 01-.636.561c-.026 0-.051 0-.084-.006a.643.643 0 01-.559-.708l.308-2.462a.65.65 0 01.72-.555.64.64 0 01.559.714l-.308 2.456zM24.451 8.727A.638.638 0 0123.914 8c.04-.259.272-1.586.902-2.253.243-.257.649-.271.908-.029s.272.644.029.902c-.267.282-.494 1.091-.57 1.575a.643.643 0 01-.733.533zM1.023 11.905C.9 11.431.594 10.648.301 10.393c-.267-.232-.294-.635-.06-.9s.639-.292.907-.059c.693.603 1.054 1.901 1.12 2.154a.644.644 0 01-1.246.317z"/></symbol><symbol id="icon-campfire-bg2x" viewBox="0 0 28 32"><path d="M28.799 21.831c-.373-.836-.887-1.659-1.639-2.609-1.896-2.386-2.474-7.706-2.481-7.757a.642.642 0 00-.443-.542.65.65 0 00-.681.185c-2.262 2.533-1.311 6.443-.797 8.006.141.427.296.931.405 1.442.835 4.127-.778 5.996-1.157 6.373-.366.102-.617.051-.848-.198-.797-.874-1.06-3.738-.688-7.47a7.66 7.66 0 00-.051-2.08c-.786-4.587-3.668-7.529-4.402-8.561-2.018-2.985-2.224-7.955-2.23-7.999a.641.641 0 00-1.002-.504c-3.368 2.29-3.078 7.808-2.609 10.889.109.714.321 1.442.688 2.36 1.305 3.285-.257 7.527-.27 7.566s-.026.07-.032.108c-.199 1.046-.533 1.671-.906 1.671a.428.428 0 01-.122-.019c-.456-.096-.694-.581-.7-1.002-.026-5.441-5.482-7.272-5.54-7.291a.64.64 0 00-.681.191.629.629 0 00-.09.702c.064.134.27.721.129 2.794a23.848 23.848 0 01-1.009 5.473C.345 27.795.55 31.807.563 31.998c.998 10.864 16.609 12.768 25.873 6.647 1.015-.67 1.844-1.435 2.455-2.277 3.419-4.721 1.407-11.131-.09-14.538zM5.053 32.21a.637.637 0 01-.604.67H4.41a.64.64 0 01-.643-.6 22.933 22.933 0 01.026-2.966.645.645 0 011.286.09 20.55 20.55 0 00-.026 2.807zm.315-5.652a.638.638 0 01-.636.561c-.026 0-.051 0-.084-.006a.643.643 0 01-.559-.708l.308-2.462a.65.65 0 01.72-.555.64.64 0 01.559.714l-.308 2.456zM24.451 8.727A.638.638 0 0123.914 8c.04-.259.272-1.586.902-2.253.243-.257.649-.271.908-.029s.272.644.029.902c-.267.282-.494 1.091-.57 1.575a.643.643 0 01-.733.533zM1.023 11.905C.9 11.431.594 10.648.301 10.393c-.267-.232-.294-.635-.06-.9s.639-.292.907-.059c.693.603 1.054 1.901 1.12 2.154a.644.644 0 01-1.246.317z"/></symbol><symbol id="icon-close" viewBox="0 0 18 18"><path d="M15 4.108L13.892 3 9.5 7.392 5.108 3 4 4.108 8.392 8.5 4 12.892 5.108 14 9.5 9.608 13.892 14 15 12.892 10.608 8.5 15 4.108z"/></symbol><symbol id="icon-menu-small" viewBox="0 0 32 32"><path d="M6.4 11.734V9.6h19.2v2.134H6.4zm0 5.332h19.2v-2.133H6.4v2.133zm0 5.334h19.2v-2.134H6.4V22.4z"/></symbol><symbol id="icon-menu-big" viewBox="0 0 48 32"><path d="M0 5.334V0h48v5.334H0zm0 13.332h48v-5.332H0v5.332zM0 32h48v-5.334H0V32z"/></symbol><symbol id="icon-advantages-2" viewBox="0 0 31 32"><path d="M24.717 5.25H14.47c-.667 0-1.21.543-1.21 1.21v4.242l-7.613 3.195a.248.248 0 00-.031.441l.971.581v6.192a1.118 1.118 0 00-.869 1.089v.597c0 .137.111.248.248.248h1.739a.248.248 0 00.248-.248V22.2a1.12 1.12 0 00-.87-1.089v-5.896l.768.459c-.024.177-.003-.309-.011 2.883 0 1.049 2.687 1.611 5.421 1.643v4.832a1.207 1.207 0 001.209 1.208h10.247a1.21 1.21 0 001.209-1.209V6.458c0-.658-.544-1.21-1.208-1.21zM7.456 22.201v.349H6.213v-.349a.622.622 0 111.243 0zm17.261 3.544H14.47a.709.709 0 01-.714-.711v-1.675h11.672v1.676a.718.718 0 01-.711.711zm.711-2.883H13.756v-2.659c1.335-.015 5.424-.309 5.424-1.645-.001-2.005.004-2.818-.006-2.887l2.226-1.334a.247.247 0 00-.031-.441l-7.613-3.195V8.63h11.672v14.232zm-11.92-5.95c-1.375 0-4.023.178-5.173.929.007-2.297-.08-2.148.203-2.343.715-.526 2.758-.894 4.97-.894.965 0 5.176.265 5.176 1.157v2.08c-1.161-.758-3.795-.929-5.176-.929zm.248-10.452c0-.393.32-.713.713-.713h10.247c.393 0 .712.324.712.713v1.675H13.756V6.46zm-.248 4.675l7.217 3.029-1.788 1.07c-.951-.943-4.096-1.126-5.429-1.126-1.335 0-4.48.183-5.429 1.126l-1.789-1.07 7.218-3.029zm-5.173 7.423c0-.401 1.777-1.15 5.173-1.15 3.399 0 5.176.749 5.176 1.15s-1.778 1.15-5.176 1.15c-3.396 0-5.173-.749-5.173-1.15z"/><path d="M20.538 6.693h-1.891v.496h1.891v-.496zM19.593 23.732a.821.821 0 000 1.64.821.821 0 000-1.64zm0 1.145a.325.325 0 11.001-.65.325.325 0 01-.001.65z"/><path d="M30.387 4.945V.762H.508v30.476h29.879v-4.183"/></symbol><symbol id="icon-advantages-3" viewBox="0 0 31 32"><path d="M6.947 14.566c0 .227-.344.227-.344 0a8.726 8.726 0 0117.45 0c0 .227-.342.227-.342 0 0-3.256-5.351-3.258-5.351 0 0 .227-.352.227-.352 0 0-3.248-5.36-3.248-5.36 0 0 .227-.352.227-.352 0 0-3.242-5.349-3.265-5.349 0zm5.38-1.264c.093-1.874.387-3.555.816-4.838.342-1.02.774-1.794 1.265-2.229a8.387 8.387 0 00-7.322 6.808c1.267-1.827 4.192-1.681 5.242.26zm5.654-.085c-.095-1.802-.381-3.415-.793-4.645-1.063-3.182-2.657-3.182-3.72 0-.412 1.23-.696 2.842-.793 4.645 1.143-1.942 4.163-1.942 5.306 0zm5.59-.175a8.384 8.384 0 00-7.322-6.808c.492.435.923 1.209 1.265 2.229.428 1.283.723 2.964.816 4.838 1.057-1.951 3.99-2.066 5.242-.26zM14.183 18.559v-1.772c-.319.212-.571.54-.571.939 0 .389.255.647.571.832zm.344.55c-.612-.28-1.256-.608-1.256-1.382 0-.799.608-1.199 1.256-1.498v2.88zM16.474 21.232v1.792c.323-.214.577-.544.577-.943 0-.393-.26-.659-.577-.849zm-.342-.552c.614.284 1.263.622 1.263 1.401 0 .801-.612 1.201-1.263 1.497V20.68z"/><path d="M16.474 14.77c1.409.325 2.857 1.38 2.857 2.956 0 1.349-2.28 1.3-2.28 0 0-.402-.253-.731-.577-.943v2.521c1.304.426 2.861 1.191 2.861 2.777 0 1.578-1.448 2.63-2.861 2.954-.006 1.502-2.286 1.5-2.29-.002-.803-.185-1.502-.56-2.006-1.057-.529-.523-.842-1.18-.842-1.895 0-1.329 2.278-1.329 2.278 0 0 .398.251.725.571.937v-2.519c-1.294-.418-2.859-1.205-2.859-2.777 0-1.578 1.448-2.63 2.859-2.954.006-1.502 2.286-1.5 2.29.002zm-1.947.004v.274c-1.341.266-2.861 1.125-2.861 2.674 0 1.489 1.668 2.157 2.861 2.525v3.329c-.645-.295-1.256-.692-1.256-1.495 0-.878-1.594-.878-1.594 0 0 .62.276 1.193.742 1.65.591.585 1.308.863 2.109 1.022v.276c0 1.057 1.605 1.057 1.605 0v-.274c1.345-.268 2.859-1.127 2.859-2.674 0-1.504-1.664-2.15-2.859-2.527v-3.327c.647.295 1.263.692 1.263 1.5 0 .855 1.592.89 1.592 0 0-1.547-1.512-2.408-2.855-2.676v-.276c0-1.057-1.605-1.057-1.605 0z"/><path d="M30.387 4.945V.762H.508v30.476h29.879v-4.183"/></symbol><symbol id="icon-arrow-left" viewBox="0 0 54 32"><path d="M52 14a2 2 0 110 4v-4zM.586 17.414a2 2 0 010-2.828L13.314 1.858a2 2 0 112.828 2.828L4.828 16l11.314 11.314a2 2 0 11-2.828 2.828L.586 17.414zM52 18H2v-4h50v4z"/></symbol><symbol id="icon-arrow-right" viewBox="0 0 54 32"><path d="M2 14a2 2 0 100 4v-4zm51.414 3.414a2 2 0 000-2.828L40.686 1.858a2 2 0 10-2.828 2.828L49.172 16 37.858 27.314a2 2 0 102.828 2.828l12.728-12.728zM2 18h50v-4H2v4z"/></symbol><symbol id="icon-how-we-do-1" viewBox="0 0 31 32"><path d="M30.151 4.961l-.001-.002a.32.32 0 00-.06-.09L25.284.063a.258.258 0 00-.041-.033l-.009-.006c-.012-.007-.024-.014-.036-.019L25.187 0a.277.277 0 00-.099-.02H3.911a.284.284 0 00-.284.284v29.311c0 .019.002.037.006.056l.007.023.009.03.014.026.013.023c.01.014.021.028.033.04l.003.003 2.165 2.164c.111.111.29.111.402 0l1.965-1.963 1.964 1.963c.055.056.128.083.201.083s.145-.027.201-.083l1.964-1.963 1.964 1.963a.284.284 0 00.402 0l1.963-1.963 1.963 1.963a.283.283 0 00.401 0l1.965-1.963 1.963 1.963c.055.056.128.083.201.083s.145-.027.201-.083l1.963-1.963 1.965 1.963a.283.283 0 00.401 0l2.165-2.164.011-.014.024-.029c.007-.01.011-.02.016-.03.003-.007.007-.012.009-.019.006-.013.009-.026.012-.039l.004-.013a.278.278 0 00.006-.058V5.071a.296.296 0 00-.023-.109zM25.367.949l3.836 3.835h-3.836V.949zm4.237 28.507l-1.88 1.88-1.965-1.963a.283.283 0 00-.401 0l-1.963 1.963-1.963-1.963a.284.284 0 00-.402 0l-1.965 1.963-1.963-1.962v-.001a.284.284 0 00-.402 0l-1.963 1.963-1.964-1.963a.284.284 0 00-.402 0l-1.963 1.963-1.964-1.963a.284.284 0 00-.402 0l-1.965 1.963-1.88-1.88V.547H24.8v4.522c0 .157.127.284.284.284h4.521v24.103z"/><path d="M6.314 3.234h9.303a.284.284 0 100-.568H6.314a.284.284 0 100 .568zM6.314 4.991h14.919a.284.284 0 100-.568H6.314a.284.284 0 100 .568zM6.03 6.568v9.199c0 .157.127.284.284.284h21.172a.284.284 0 00.284-.284V6.568a.284.284 0 00-.284-.284H6.314a.284.284 0 00-.284.284zm6.278.284h14.893v2.445H12.308V6.852zm0 3.014h14.893v2.444H12.308V9.866zm0 3.011h14.893v2.605H12.308v-2.605zm-5.71-6.025h5.142v2.445H6.598V6.852zm0 3.014h5.142v2.444H6.598V9.866zm0 3.011h5.142v2.605H6.598v-2.605zM27.486 17.329H6.314a.284.284 0 00-.284.284v9.198a.284.284 0 10.568 0v-2.889h5.142v2.889a.284.284 0 10.568 0v-2.889h14.893v2.889a.284.284 0 10.568 0v-9.198a.282.282 0 00-.283-.284zM11.74 23.354H6.598v-2.443h5.142v2.443zm0-3.012H6.598v-2.444h5.142v2.444zm15.461 3.012H12.308v-2.443h14.893v2.443zm0-3.012H12.308v-2.444h14.893v2.444zM2.281-.021a.284.284 0 00-.284.284v29.311a.284.284 0 10.568 0V.263a.284.284 0 00-.284-.284zM.718-.021a.284.284 0 00-.284.284v29.311a.284.284 0 10.568 0V.263a.284.284 0 00-.284-.284z"/></symbol><symbol id="icon-how-we-do-2" viewBox="0 0 33 32"><path d="M30.477-.128H14.782a1.858 1.858 0 00-1.853 1.859v6.518l-11.66 4.91a.381.381 0 00-.049.678l1.487.893v9.515a1.719 1.719 0 00-1.331 1.674v.917c0 .21.17.381.38.381h2.663a.38.38 0 00.38-.381v-.917c0-.816-.571-1.498-1.332-1.673v-9.06l1.176.706c-.036.272-.005-.474-.017 4.43 0 1.612 4.115 2.476 8.303 2.525v7.425c0 .384.117.74.317 1.036.333.494.897.82 1.535.82h15.695a1.856 1.856 0 001.851-1.857c0 .051-.002-1.573 0-28.54a1.868 1.868 0 00-1.85-1.859zM4.04 25.918v.536H2.137v-.536c0-.528.426-.957.949-.957.526 0 .954.43.954.957zm26.437 5.446H14.782a1.092 1.092 0 01-1.093-1.094v-2.574h17.876v2.575a1.1 1.1 0 01-1.089 1.092zm1.089-4.429H13.689v-4.086c2.044-.023 8.308-.475 8.308-2.527-.002-3.081.005-4.33-.01-4.436l3.41-2.049a.383.383 0 00-.049-.678l-11.659-4.91V5.067h17.877v21.868zm-18.257-9.143c-2.106 0-6.161.273-7.923 1.427.011-3.53-.122-3.3.311-3.6 1.094-.809 4.225-1.373 7.612-1.373 1.477 0 7.928.408 7.928 1.778v3.195c-1.778-1.165-5.813-1.428-7.928-1.428zm.381-16.061c0-.604.49-1.095 1.092-1.095h15.695c.602 0 1.09.498 1.09 1.095v2.574H13.691V1.731zm-.381 7.184l11.054 4.655-2.739 1.644c-1.456-1.449-6.273-1.73-8.315-1.73-2.045 0-6.862.282-8.315 1.73l-2.74-1.645 11.055-4.655zM5.386 20.321c0-.617 2.721-1.767 7.923-1.767 5.205 0 7.928 1.151 7.928 1.767s-2.723 1.768-7.928 1.768c-5.202 0-7.923-1.151-7.923-1.768z"/><path d="M22.629 28.271a1.26 1.26 0 000 2.52c.693 0 1.256-.565 1.256-1.26s-.563-1.26-1.256-1.26zm0 1.759a.498.498 0 010-.997.498.498 0 010 .997zM24.077 2.09H21.18v.762h2.897V2.09z"/></symbol><symbol id="icon-how-we-do-3" viewBox="0 0 46 32"><path d="M20.267 12.224H6.627v1.021h13.64v-1.021zM20.267 4.608H6.627v1.021h13.64V4.608zM20.267 8.416H8.67v1.021h11.597V8.416zM20.267 16.032H8.67v1.021h11.597v-1.021zM20.267 19.84H6.627v1.021h13.64V19.84zM20.267 23.648H8.67v1.021h11.597v-1.021zM38.99 4.608H25.35v1.021h13.64V4.608zM36.947 8.416H25.35v1.021h11.597V8.416zM38.99 12.224H25.35v1.021h13.64v-1.021zM36.947 16.032H25.35v1.021h11.597v-1.021zM38.99 19.84H25.35v1.021h13.64V19.84zM36.947 23.648H25.35v1.021h11.597v-1.021z"/><path d="M43.915 3.445h-1.872V.633a.511.511 0 00-.511-.511H26.267c-1.49 0-2.781.805-3.458 2.011A3.95 3.95 0 0019.35.122H4.085a.511.511 0 00-.511.511v2.812H1.702a.511.511 0 00-.511.511v27.411c0 .282.229.511.511.511h42.213a.511.511 0 00.511-.511V3.956a.511.511 0 00-.511-.511zM26.267 1.144h14.754v27.35H25.178c-.702 0-1.404.296-1.859.68V4.085a2.932 2.932 0 012.948-2.942zm-21.671 0H19.35a2.924 2.924 0 012.942 2.829c.001.022.003.091.006.112v25.087a2.987 2.987 0 00-1.852-.678H4.596V1.144zM2.213 4.467h1.362v24.538c0 .282.229.511.511.511h16.361c.778 0 1.531.511 1.771 1.341H2.214V4.467zm41.191 26.389H23.4a1.845 1.845 0 011.778-1.341h16.354a.511.511 0 00.511-.511V4.466h1.362v26.39z"/></symbol><symbol id="icon-how-we-do-4" viewBox="0 0 33 32"><path d="M1.993 12.558v2.831a.5.5 0 00.189.39 11.099 11.099 0 006.837 2.362c.74 0 1.481-.077 2.206-.224a12.013 12.013 0 004.89 1.032c1.707 0 3.351-.349 4.89-1.032 3.091.624 6.384-.046 9.042-2.139a.495.495 0 00.189-.39v-2.831a1.2 1.2 0 00-.575-1.027l-3.867-2.176c.846-1.073 1.476-2.602 1.586-3.913.321-2.257-1.518-4.646-4.166-4.646a4.208 4.208 0 00-2.948 1.227c-.027.027-.058.049-.084.076-.024.025-.043.054-.067.08-.016.017-.029.036-.044.053-.757-1.38-2.211-2.232-3.924-2.232-.166 0-.33.011-.492.028-.01-.001-.018-.006-.028-.006-.092 0-.287.024-.391.054-.015.004-.026.015-.041.021a4.483 4.483 0 00-3.013 2.156A4.176 4.176 0 009.003.795c-3.908 0-5.642 4.612-2.557 8.581l-3.903 2.167a1.193 1.193 0 00-.553 1.014zm19.003 4.27c-.084.041-.167.085-.251.123l-.002.001a11.007 11.007 0 01-4.627 1.006 11.023 11.023 0 01-6.674-2.228v-2.87c0-.098.047-.185.102-.221l4.542-2.524c.565.48 1.287.832 2.035.832.721 0 1.499-.357 2.052-.843l4.487 2.52c.083.053.13.14.13.237v2.87c-.571.429-1.173.795-1.794 1.098zm8.158-4.446a.201.201 0 01.092.176v2.587a9.986 9.986 0 01-6.737 1.98c.369-.23.771-.516 1.083-.76a.496.496 0 00.19-.39v-3.114c0-.435-.218-.835-.61-1.087l-2.383-1.339.58-.321c.703.573 1.307.744 1.848.744.662 0 1.36-.325 1.878-.759l4.06 2.284zM23.216 1.788c1.38 0 2.593.902 3.021 2.142A3.703 3.703 0 0124 2.788a.494.494 0 00-.788.084 3.684 3.684 0 01-2.548 1.76v-.003a4.786 4.786 0 00-.162-1.329c.563-.902 1.609-1.513 2.713-1.513zm-2.66 3.855a4.642 4.642 0 003.164-1.762 4.684 4.684 0 002.702 1.056c-.007 1.792-1.471 4.927-3.206 4.927-1.337 0-2.479-1.912-2.905-3.238a8.15 8.15 0 00.245-.983zm.101 3.73l-.886.491-.895-.502c.332-.413.636-.893.896-1.413.25.526.55 1.01.884 1.425zM19.32 6.465c-.478 1.427-1.705 3.49-3.199 3.49-1.742 0-3.226-2.864-3.509-4.696.075-.019 2.43.126 4.05-2.001.822.688 1.932 1.143 3.011 1.188.013.647-.144 1.406-.352 2.018zM16.15.992c2.78 0 3.309 2.393 3.352 2.442a4.123 4.123 0 01-2.563-1.276.497.497 0 00-.789.087 4.073 4.073 0 01-3.58 2.022c.136-1.822 1.596-3.274 3.58-3.274zm-3.689 6.946c.257.515.563 1.006.913 1.438l-.875.487-.907-.51a7.76 7.76 0 00.87-1.415zm-3.455-6.15c1.125 0 2.155.571 2.729 1.514-.029.1-.106.498-.117.548a3.675 3.675 0 01-1.821-1.062.496.496 0 00-.788.086 3.712 3.712 0 01-3.177 1.815c.158-1.627 1.518-2.9 3.174-2.9zm-3.13 3.889a4.711 4.711 0 003.643-1.796 4.613 4.613 0 002.055.961c.029.575.179 1.273.35 1.789-.274.84-.799 1.841-1.451 2.505l-.014.01c-.408.43-.988.719-1.444.719-1.594 0-2.841-2.508-3.14-4.188zm-2.891 6.881c0-.075.033-.139.067-.162l4.116-2.284c.247.206.304.229.353.265.484.322.928.482 1.534.482.645 0 1.232-.273 1.749-.694.029-.023.06-.045.088-.068l.587.33-2.446 1.361a1.269 1.269 0 00-.584 1.071v3.114c0 .152.07.296.19.39.317.249.727.539 1.083.761a10.024 10.024 0 01-6.737-1.98v-2.587z"/><path d="M31.259 20.779a2.063 2.063 0 00-2.007-.11l-6.119 2.956a2.111 2.111 0 00-2.107-2.072l-3.509.001c-1.73-1.504-3.941-2.425-5.952-2.473-1.983-.047-3.762-.06-4.593-.064v-1.002H0v11.517h6.972v-1.379c1.912 1.097 6.939 3.845 9.325 3.845.054 0 .107-.001.158-.004 4.196-.235 14.091-7.198 14.743-7.661a2.08 2.08 0 001.034-1.796c0-.719-.364-1.376-.973-1.758zM5.98 28.541H.992v-9.533H5.98v9.533zm24.707-5.058a.296.296 0 00-.044.028c-.102.073-10.281 7.271-14.244 7.494a2.354 2.354 0 01-.121.003c-2.092 0-7.194-2.753-9.307-4.001V20.01c.827.004 2.596.017 4.569.064 1.837.044 3.876.921 5.456 2.346l.141.128 3.887-.001c.617 0 1.119.502 1.119 1.119s-.502 1.119-1.119 1.119h-7.142v.992h7.142c.684 0 1.288-.333 1.674-.839l6.984-3.374c.343-.167.725-.146 1.049.057s.508.537.508.918c0 .391-.212.753-.553.945zM16.612 12.156h-.992v.919h.992v-.919zM16.612 13.995h-.992v.92h.992v-.92zM16.612 15.828h-.992v.92h.992v-.92z"/></symbol><symbol id="icon-how-we-do-5" viewBox="0 0 27 32"><path d="M-.103 31.759h26.785c.133-3.055-.086-8.122-1.964-10.535l-.068-.087-4.104-2.061c.089-.301.133-.576.151-.778a1.43 1.43 0 00-.1-.678c-.677-1.62-2.11-2.472-2.898-2.836.24-.484.395-1.003.47-1.534.446-.126.805-.479.922-.951l.479-1.946a1.314 1.314 0 00-.151-1.002 1.31 1.31 0 00-.294-.334c1.351-3.068-.911-5.96-1.035-6.113C15.64.255 12.545.751 12.382.78c-4.466.935-6.19 4.358-5.217 8.372a1.317 1.317 0 00-.302 1.2l.481 1.948c.117.468.473.82.916.948a5.014 5.014 0 001.152 2.559v1.543c-6.409 3.282-2.348 1.188-7.484 3.786-.01.049-2.41 2.599-2.053 10.159l.022.462zm25.854-.97h-4.408v-1.852l2.916-6.674c1.461 2.424 1.515 7.053 1.493 8.526zm-6.016-12.573c-.17 1.954-1.242 1.364-1.903 2.869-.52-.572-.677-1.258-.537-1.993.253-1.349-.57-1.749-.367-3.166l.031-.032v-.005c.017-.02.18-.213.227-.274 1.744.76 2.584 2.174 2.55 2.6zm-9.356-1.536a4.963 4.963 0 005.574.074c.112 1.114.547 1.337.393 2.157a3.536 3.536 0 00-.054.45l-3.002 3.384-3.838-4.327.926-.484V16.68zm-1.207-4.141v-1.876-3.296c.467-.864 1.104-1.491 1.896-1.867 2.12 1.2 4.56 2.99 6.197 4.792-.002 2.294.006 2.301-.009 2.489l-.001.012c-.128 2.084-1.841 3.811-4.038 3.811-2.136 0-3.909-1.677-4.037-3.831a2.578 2.578 0 01-.008-.233zm-.598 6.347l4.716 5.317 3.166-3.569c.072.208.174.405.29.595l-3.456 4.322-5.154-6.446.438-.22zm9.656-7.127v-1.498l.36-.413c.02.758.102-.137-.36 1.911zM12.562 1.734c.192.012 2.765-.391 4.799 1.804.08.1 1.736 2.234 1.071 4.567-.228-1.038-.624-2.369-1.252-3.004l-.685.683c.619.627 1.026 2.537 1.181 3.527-2.84-2.972-6.504-4.853-6.555-4.885-.184.114-1.734.409-2.86 2.598l-.054.105v1.607l-.142.002c-.715-3.454.655-6.198 4.497-7.004zm-4.6 8.001l.244.987v1.038l-.405-1.639c-.059-.244.122-.337.161-.386zm-.71 9.815l6.037 7.551 4.085-5.109c.444.398.658.454 1.6.939l-.318-1.078c-.081-.274.239-.713.431-.914.43-.233.789-.566 1.058-.977l3.333 1.674-3.101 7.1v2.055H6.201v-2.055l-3.103-7.099 4.153-2.085zM2.32 22.265l2.916 6.673v1.852H.828c-.022-1.473.033-6.099 1.492-8.524z"/></symbol><symbol id="icon-how-we-do-6" viewBox="0 0 39 32"><path d="M3.048 29.453h12.23a3.738 3.738 0 003.38 2.116h.772c1.465 0 2.761-.83 3.381-2.116h12.237a2.289 2.289 0 002.286-2.286V5.262a2.289 2.289 0 00-2.286-2.286h-1.234V1.955c0-.84-.684-1.524-1.524-1.524H5.799c-.84 0-1.524.683-1.524 1.524v1.021H3.048A2.289 2.289 0 00.762 5.262v21.905a2.289 2.289 0 002.286 2.286zm29.24-4.701H19.81V7.047c2.884.377 5.121 2.845 5.121 5.831v.687l-.181-.04a.759.759 0 00-.908.58l-1.213 5.519c-.09.41.17.816.58.907l2.621.578a1.946 1.946 0 002.319-1.491l.702-3.192a1.954 1.954 0 00-1.484-2.324l-.912-.201v-1.023c0-3.827-2.917-6.986-6.644-7.37V1.957h12.48l-.001 22.796zm-7.122-9.575l1.871.412a.422.422 0 01.325.508l-.702 3.191a.45.45 0 01-.507.331l-1.874-.413.886-4.03zM5.798 1.956h12.487v3.55c-3.731.381-6.652 3.541-6.652 7.371v1.022l-.914.202a1.935 1.935 0 00-1.222.854c-.28.439-.373.961-.26 1.468l.7 3.188a1.96 1.96 0 002.325 1.495l2.61-.577a.762.762 0 00.58-.907l-1.213-5.519c-.043-.198-.164-.37-.334-.478s-.378-.144-.574-.102l-.174.038v-.686c0-2.988 2.24-5.458 5.128-5.832v17.706H5.798V1.953zm7.118 13.221l.887 4.029-1.863.411a.433.433 0 01-.512-.328l-.702-3.196a.42.42 0 01.323-.506l1.867-.412zM2.286 5.262c0-.42.341-.762.762-.762h1.227v20.251c0 .84.684 1.524 1.524 1.524H32.29c.84 0 1.524-.683 1.524-1.524V4.5h1.234c.42 0 .762.342.762.762v21.905c0 .42-.341.762-.762.762H22.294a.76.76 0 00-.728.538 2.22 2.22 0 01-2.135 1.577h-.772a2.229 2.229 0 01-2.138-1.586.762.762 0 00-.725-.529H3.049a.763.763 0 01-.762-.762V5.262z"/></symbol><symbol id="icon-instagram" viewBox="0 0 32 32"><path fill="var(--color3, #000)" d="M31.452 5.724A5.827 5.827 0 0026.276.548a96.718 96.718 0 00-20.553 0A5.827 5.827 0 00.547 5.724a96.718 96.718 0 000 20.553 5.827 5.827 0 005.176 5.176c6.844.73 13.709.73 20.553 0a5.828 5.828 0 005.176-5.176c.73-6.844.73-13.708 0-20.553z"/><path fill="var(--color3, #000)" d="M29.712 6.881a5.17 5.17 0 00-4.593-4.593 85.795 85.795 0 00-18.238 0 5.171 5.171 0 00-4.593 4.593 85.795 85.795 0 000 18.238 5.17 5.17 0 004.593 4.593 85.795 85.795 0 0018.238 0 5.17 5.17 0 004.593-4.593 85.795 85.795 0 000-18.238z"/><path fill="var(--color3, #000)" d="M.48 25.613l.068.664a5.828 5.828 0 005.176 5.176c6.844.73 13.709.73 20.552 0a5.827 5.827 0 005.176-5.176c.024-.221.046-.442.069-.664H.48z"/><path fill="var(--color3, #000)" d="M31.452 26.276c.393-3.678.574-7.361.544-11.044l-7.314-7.314c-.914-1.043-2.249-1.694-3.817-1.751-3.225-.116-6.461-.11-9.687 0-2.679.092-4.553 1.893-5.033 4.54-.085.467-.136.941-.202 1.411v7.759c.037.252.091.502.108.755.107 1.61.769 2.989 1.828 3.922l7.443 7.443a96.755 96.755 0 0010.954-.545 5.828 5.828 0 005.176-5.176z"/><path fill="var(--color3, #000)" d="M31.452 26.277a5.827 5.827 0 01-5.176 5.176 96.738 96.738 0 01-10.953.545l-7.432-7.432c.862.754 1.985 1.213 3.288 1.262 3.225.121 6.461.118 9.686.002 2.917-.105 5.028-2.264 5.119-5.181.097-3.097.097-6.202 0-9.3-.041-1.346-.514-2.53-1.297-3.426l7.31 7.31a96.729 96.729 0 01-.545 11.044z"/><path fill="var(--color3, #000)" d="M19.776 12.535a5.125 5.125 0 10-7.241 7.241l11.859 11.859c.628-.055 1.255-.116 1.883-.182a5.827 5.827 0 005.176-5.176c.067-.627.128-1.255.182-1.883L19.776 12.535zM31.938 19.447l-9.544-9.544a1.22 1.22 0 00-2.189.737c0 .396.19.747.482.969l11.08 11.08c.075-1.081.132-2.162.171-3.243z"/><path fill="var(--color3, #000)" d="M5.943 12.119c.067-.471.117-.944.202-1.411.48-2.647 2.354-4.447 5.033-4.54 3.226-.111 6.461-.117 9.687 0 2.916.105 5.028 2.264 5.119 5.181.097 3.097.097 6.202 0 9.3-.091 2.917-2.202 5.076-5.119 5.181-3.225.116-6.462.119-9.687-.002-2.916-.11-4.933-2.274-5.128-5.195-.017-.253-.071-.503-.108-.755v-7.759zm10.06 11.982c1.476 0 2.954.044 4.428-.01 2.311-.086 3.733-1.465 3.787-3.774.067-2.877.067-5.758 0-8.636-.054-2.309-1.477-3.72-3.787-3.769a208.195 208.195 0 00-8.8 0c-2.293.048-3.719 1.431-3.781 3.714a161.406 161.406 0 000 8.746c.062 2.283 1.488 3.634 3.781 3.719 1.456.054 2.915.01 4.372.01z"/><path fill="var(--color2, #fff)" d="M5.943 12.119c.067-.471.117-.944.202-1.411.48-2.647 2.354-4.447 5.033-4.54 3.226-.111 6.461-.117 9.687 0 2.916.105 5.028 2.264 5.119 5.181.097 3.097.097 6.202 0 9.3-.091 2.917-2.202 5.076-5.119 5.181-3.225.116-6.462.119-9.687-.002-2.916-.11-4.933-2.274-5.128-5.195-.017-.253-.071-.503-.108-.755v-7.759zm10.06 11.982c1.476 0 2.954.044 4.428-.01 2.311-.086 3.733-1.465 3.787-3.774.067-2.877.067-5.758 0-8.636-.054-2.309-1.477-3.72-3.787-3.769a208.195 208.195 0 00-8.8 0c-2.293.048-3.719 1.431-3.781 3.714a161.406 161.406 0 000 8.746c.062 2.283 1.488 3.634 3.781 3.719 1.456.054 2.915.01 4.372.01z"/><path fill="var(--color2, #fff)" d="M16 10.875a5.125 5.125 0 100 10.25 5.125 5.125 0 000-10.25zm0 8.486a3.361 3.361 0 110-6.723 3.361 3.361 0 010 6.723zM22.644 10.641a1.22 1.22 0 11-2.439 0 1.22 1.22 0 012.439 0z"/></symbol><symbol id="icon-logo" viewBox="0 0 24 32"><path d="M21.908 16.593c-.284-.635-.675-1.261-1.247-1.983-1.442-1.813-1.882-5.857-1.887-5.896a.488.488 0 00-.337-.412.495.495 0 00-.518.141c-1.721 1.925-.997 4.897-.606 6.085.108.325.225.708.308 1.096.636 3.137-.592 4.558-.88 4.844-.279.078-.469.039-.645-.15-.606-.664-.807-2.841-.523-5.678a5.797 5.797 0 00-.039-1.581c-.598-3.486-2.791-5.722-3.349-6.507C10.65 4.283 10.493.506 10.489.472a.487.487 0 00-.763-.383C7.164 1.83 7.384 6.024 7.741 8.365c.083.543.244 1.096.523 1.794.992 2.497-.196 5.721-.205 5.75s-.02.053-.024.082c-.152.795-.406 1.27-.689 1.27a.327.327 0 01-.093-.015c-.347-.073-.528-.441-.533-.761-.02-4.136-4.17-5.527-4.214-5.542a.487.487 0 00-.586.678c.049.102.205.548.098 2.124a18.09 18.09 0 01-.768 4.16C.262 21.124.419 24.174.429 24.32c.759 8.257 12.635 9.704 19.683 5.052.772-.509 1.403-1.091 1.868-1.731 2.601-3.588 1.071-8.46-.068-11.05zM3.844 24.481a.484.484 0 01-.46.509h-.029a.487.487 0 01-.489-.456c-.044-.708-.034-1.45.02-2.255a.49.49 0 01.978.068 15.622 15.622 0 00-.02 2.133zm.239-4.296a.485.485 0 01-.484.427c-.02 0-.039 0-.064-.005a.489.489 0 01-.425-.538l.235-1.872a.494.494 0 01.548-.422c.269.034.46.276.425.543l-.235 1.867z"/></symbol><symbol id="icon-phone" viewBox="0 0 32 32"><path d="M4.657.002a2.002 2.002 0 00-1.392.651L.67 3.505c.004-.008-.01-.007-.084.097a.624.624 0 00-.09.176C-.56 7.142.148 10.842 1.872 14.362s4.475 6.888 7.633 9.651c3.158 2.764 6.721 4.926 10.119 5.999s6.692 1.058 9.133-.713a.759.759 0 00.131-.127l.01-.012 2.582-2.84a2.02 2.02 0 00-.134-2.84l-6.126-5.571a2.02 2.02 0 00-2.84.133l-2.772 3.048c-2.25-.652-4.173-1.756-6.023-3.439s-3.132-3.494-3.993-5.673l2.771-3.048a2.02 2.02 0 00-.133-2.84L6.104.519A2.008 2.008 0 004.656.001h-.001zm.058 1.251a.75.75 0 01.541.201l6.126 5.571a.736.736 0 01.05 1.061l-3.063 3.366a.632.632 0 00-.124.639c.93 2.537 2.429 4.618 4.493 6.495s4.275 3.174 6.889 3.859c.111.029.228.027.339-.005s.21-.095.287-.18l3.064-3.367a.736.736 0 011.06-.049l6.127 5.571a.735.735 0 01.049 1.06l-2.561 2.815c-2.003 1.438-4.826 1.519-7.986.521-3.173-1.002-6.617-3.076-9.666-5.744s-5.702-5.926-7.332-9.254C1.394 10.519.809 7.189 1.696 4.254l2.502-2.75a.747.747 0 01.52-.251z"/></symbol><symbol id="icon-submit" viewBox="0 0 41 32"><path d="M34.457 1.514a29.389 29.389 0 00-4.265 2.379c-2.731 1.797-5.228 3.936-7.57 6.218-2.341 2.287-4.52 4.735-6.581 7.28-.515.636-2.823 3.47-2.823 3.47L3.622 6.481-.001 16.523 12.976 32c1.26-2.551 2.473-5.07 3.662-7.258.296-.556.605-1.08.901-1.612 0 0 1.523-2.677 1.923-3.352 1.602-2.697 3.333-5.325 5.239-7.821 1.908-2.491 3.983-4.87 6.335-6.961a28.328 28.328 0 013.751-2.872c1.332-.848 2.747-1.591 4.261-2.125-1.575.31-3.111.848-4.592 1.514z"/></symbol><symbol id="icon-vk" viewBox="0 0 32 32"><path fill="var(--color4, #436eab)" d="M27.541 18.46c1.061 1.036 2.182 2.011 3.134 3.152.421.507.819 1.03 1.123 1.619.432.836.041 1.757-.709 1.807l-4.662-.002c-1.202.1-2.162-.384-2.968-1.206-.645-.657-1.243-1.357-1.864-2.037-.255-.278-.521-.539-.839-.746-.636-.413-1.189-.287-1.552.377-.37.675-.454 1.423-.491 2.175-.05 1.098-.382 1.386-1.484 1.437-2.357.111-4.593-.245-6.671-1.434-1.832-1.048-3.252-2.528-4.489-4.203-2.407-3.261-4.25-6.845-5.907-10.53-.373-.83-.1-1.276.816-1.291 1.521-.03 3.041-.027 4.564-.002.618.009 1.027.364 1.266.947.823 2.023 1.83 3.948 3.093 5.732.337.475.68.95 1.168 1.284.541.37.952.248 1.207-.355.161-.382.232-.793.268-1.202.121-1.407.136-2.812-.075-4.214-.13-.875-.623-1.442-1.496-1.607-.446-.084-.379-.25-.164-.505.375-.439.727-.712 1.43-.712h5.269c.829.164 1.014.536 1.127 1.371l.004 5.852c-.009.323.161 1.282.743 1.496.466.152.773-.22 1.052-.516 1.261-1.339 2.162-2.921 2.966-4.559.357-.72.664-1.469.961-2.216.22-.555.566-.828 1.191-.816l5.071.005c.15 0 .302.002.448.027.855.146 1.089.513.825 1.348-.416 1.309-1.225 2.4-2.016 3.496-.846 1.17-1.75 2.3-2.589 3.477-.77 1.075-.709 1.617.248 2.55z"/></symbol><symbol id="icon-checkbox-empty" viewBox="0 0 32 32"><path d="M28.444 4.333v23.333H3.555V4.333h24.889zm0-3.333H3.555C1.599 1-.001 2.5-.001 4.333v23.333c0 1.833 1.6 3.333 3.556 3.333h24.889c1.956 0 3.556-1.5 3.556-3.333V4.333C32 2.5 30.4 1 28.444 1z"/></symbol><symbol id="icon-email" viewBox="0 0 32 32"><path d="M26.667 5.333H5.334A2.663 2.663 0 002.681 8l-.013 16c0 1.467 1.2 2.667 2.667 2.667h21.333c1.467 0 2.667-1.2 2.667-2.667V8c0-1.467-1.2-2.667-2.667-2.667zM26.133 11l-9.427 5.893a1.346 1.346 0 01-1.413 0L5.866 11a1.132 1.132 0 111.2-1.92l8.933 5.587 8.933-5.587a1.132 1.132 0 111.2 1.92z"/></symbol><symbol id="icon-check" viewBox="0 0 32 32"><path d="M7.914 16.503l-.138-.131-2.067 1.958 7.282 6.947 15.298-14.594-2.053-1.959-13.245 12.623-5.077-4.844z"/></symbol><symbol id="icon-send" viewBox="0 0 32 32"><path d="M32 0L0 18l10.227 3.788L26 7 14.002 23.186l.01.004-.012-.004V32l5.735-6.691L27 28l5-28z"/></symbol><symbol id="icon-person" viewBox="0 0 32 32"><path d="M16 16c2.947 0 5.333-2.387 5.333-5.333S18.946 5.334 16 5.334c-2.947 0-5.333 2.387-5.333 5.333S13.054 16 16 16zm0 2.667c-3.56 0-10.667 1.787-10.667 5.333v1.333c0 .733.6 1.333 1.333 1.333h18.667c.733 0 1.333-.6 1.333-1.333V24c0-3.547-7.107-5.333-10.667-5.333z"/></symbol><symbol id="icon-phone" viewBox="0 0 32 32"><path d="M24.882 19.773l-3.268-.373a2.561 2.561 0 00-2.11.733L17.137 22.5a19.357 19.357 0 01-8.478-8.478l2.38-2.38a2.561 2.561 0 00.733-2.11l-.373-3.242a2.575 2.575 0 00-2.56-2.277H6.613c-1.454 0-2.663 1.209-2.573 2.663.682 10.987 9.469 19.761 20.443 20.443 1.454.09 2.663-1.119 2.663-2.573V22.32a2.549 2.549 0 00-2.264-2.547z"/></symbol><symbol id="icon-close" viewBox="0 0 18 18"><path d="M15 4.108L13.892 3 9.5 7.392 5.108 3 4 4.108 8.392 8.5 4 12.892 5.108 14 9.5 9.608 13.892 14 15 12.892 10.608 8.5 15 4.108z"/></symbol></defs></svg>