<svg width="128" height="45" fill="none" xmlns="http://www.w3.org/2000/svg"><path d="M19.136 6.8V25h-5.148v-7.098h-7.02V25H1.82V6.8h5.148v6.838h7.02V6.8h5.148zm18.841 11.18c0 .035-.026.442-.078 1.222H27.655c.208.728.607 1.291 1.196 1.69.607.381 1.36.572 2.262.572.676 0 1.257-.095 1.742-.286.503-.19 1.006-.503 1.508-.936l2.6 2.704c-1.37 1.525-3.371 2.288-6.006 2.288-1.646 0-3.094-.312-4.342-.936-1.248-.624-2.218-1.49-2.912-2.6-.676-1.11-1.014-2.366-1.014-3.77 0-1.387.33-2.626.988-3.718a7.057 7.057 0 012.782-2.6c1.179-.624 2.505-.936 3.978-.936 1.404 0 2.678.295 3.822.884a6.431 6.431 0 012.704 2.522c.676 1.092 1.014 2.392 1.014 3.9zm-7.514-3.796c-.762 0-1.404.217-1.924.65-.502.433-.823 1.023-.962 1.768h5.772c-.138-.745-.468-1.335-.988-1.768-.502-.433-1.135-.65-1.898-.65zm10.832-8.476h4.94V25h-4.94V5.708zm9.19 0h4.94V25h-4.94V5.708zM11.506 37.4V43H10.21v-2.296H7.666V43H6.37v-5.6h1.296v2.208h2.544V37.4h1.296zm7.1 4.56V43h-4.335v-5.6h4.232v1.04h-2.944v1.216h2.6v1.008h-2.6v1.296h3.048zm2.472-4.56h1.296v4.544h2.808V43h-4.104v-5.6zm6.268 0h1.296v4.544h2.808V43h-4.104v-5.6zm6.268 0h1.296V43h-1.296v-5.6zm5.905 5.696c-.443 0-.872-.059-1.288-.176-.41-.123-.741-.28-.992-.472l.44-.976c.24.176.525.317.856.424.33.107.661.16.992.16.368 0 .64-.053.816-.16.176-.112.264-.259.264-.44a.402.402 0 00-.16-.328 1.095 1.095 0 00-.4-.216 7.543 7.543 0 00-.656-.176 9.122 9.122 0 01-1.048-.304 1.732 1.732 0 01-.704-.488c-.192-.224-.288-.523-.288-.896 0-.325.088-.619.264-.88.176-.267.44-.477.792-.632.357-.155.792-.232 1.304-.232.357 0 .707.043 1.048.128.341.085.64.208.896.368l-.4.984c-.517-.293-1.035-.44-1.552-.44-.363 0-.632.059-.808.176a.539.539 0 00-.256.464c0 .192.099.336.296.432.203.09.51.181.92.272.427.101.776.203 1.048.304.272.101.504.261.696.48.197.219.296.515.296.888 0 .32-.09.613-.272.88-.176.261-.443.47-.8.624-.357.155-.792.232-1.304.232zm9.838-5.696V43H48.06v-2.296h-2.544V43H44.22v-5.6h1.296v2.208h2.544V37.4h1.296zm6.74 1.056h-2.663L53.442 43h-1.288v-5.6h3.951l-.008 1.056zm6.543 3.504V43h-4.336v-5.6h4.232v1.04h-2.944v1.216h2.6v1.008h-2.6v1.296h3.048zm7.607-4.56V43h-1.064l-2.792-3.4V43h-1.28v-5.6h1.072l2.784 3.4v-3.4h1.28zm6.549 2.712h1.184v2.272c-.304.23-.656.405-1.056.528s-.803.184-1.208.184a3.303 3.303 0 01-1.568-.368 2.837 2.837 0 01-1.096-1.032 2.887 2.887 0 01-.392-1.496c0-.555.13-1.05.392-1.488a2.747 2.747 0 011.104-1.032c.47-.25.997-.376 1.584-.376.49 0 .936.083 1.336.248.4.165.736.405 1.008.72l-.832.768a1.924 1.924 0 00-1.448-.632c-.358 0-.675.075-.952.224-.278.15-.493.36-.648.632a1.86 1.86 0 00-.232.936c0 .347.077.656.232.928.155.272.368.485.64.64.277.15.592.224.944.224a2.1 2.1 0 001.008-.24v-1.64zm3.828-2.712h1.296v4.544h2.808V43h-4.104v-5.6zm6.268 0h1.296V43h-1.296v-5.6zm5.905 5.696c-.443 0-.872-.059-1.288-.176-.41-.123-.742-.28-.992-.472l.44-.976c.24.176.525.317.856.424.33.107.661.16.992.16.368 0 .64-.053.816-.16.176-.112.264-.259.264-.44a.402.402 0 00-.16-.328 1.095 1.095 0 00-.4-.216 7.543 7.543 0 00-.656-.176 9.122 9.122 0 01-1.048-.304 1.732 1.732 0 01-.704-.488c-.192-.224-.288-.523-.288-.896 0-.325.088-.619.264-.88.176-.267.44-.477.792-.632.357-.155.792-.232 1.304-.232.357 0 .706.043 1.048.128.341.085.64.208.896.368l-.4.984c-.517-.293-1.035-.44-1.552-.44-.363 0-.632.059-.808.176a.539.539 0 00-.256.464c0 .192.099.336.296.432.203.09.51.181.92.272.427.101.776.203 1.048.304.272.101.504.261.696.48.197.219.296.515.296.888 0 .32-.09.613-.272.88-.176.261-.443.47-.8.624-.358.155-.792.232-1.304.232zm9.837-5.696V43h-1.296v-2.296h-2.544V43h-1.296v-5.6h1.296v2.208h2.544V37.4h1.296zM104.432 21.022V25H89.82V6.8h14.274v3.978h-9.178v3.068h8.086v3.848h-8.086v3.328h9.516zM125.645 6.8V25h-4.238l-8.034-9.698V25h-5.044V6.8h4.238l8.034 9.698V6.8h5.044z" fill="#111518"/><path d="M82.54 15.556c-.267-.596-.633-1.182-1.17-1.86-1.352-1.7-1.764-5.49-1.769-5.527a.457.457 0 00-.316-.386.465.465 0 00-.486.132c-1.613 1.804-.935 4.59-.568 5.704.1.305.21.664.289 1.028.595 2.94-.555 4.272-.825 4.54-.262.073-.44.037-.605-.14-.569-.623-.757-2.664-.49-5.323a5.44 5.44 0 00-.037-1.482c-.561-3.268-2.617-5.365-3.14-6.1-1.44-2.127-1.586-5.668-1.59-5.7a.458.458 0 00-.715-.36c-2.402 1.633-2.196 5.565-1.861 7.76.078.51.229 1.027.49 1.682.93 2.34-.183 5.364-.192 5.39-.01.028-.019.05-.023.078-.142.746-.38 1.191-.647 1.191a.314.314 0 01-.087-.014c-.325-.068-.495-.413-.5-.713-.018-3.877-3.909-5.182-3.95-5.196a.456.456 0 00-.486.137.447.447 0 00-.064.5c.046.095.192.513.092 1.99a16.978 16.978 0 01-.72 3.9c-.926 3.019-.78 5.878-.77 6.014.712 7.742 11.845 9.098 18.453 4.737.724-.478 1.315-1.023 1.75-1.623 2.439-3.364 1.004-7.932-.064-10.36zM65.603 22.95a.454.454 0 01-.431.477h-.028a.456.456 0 01-.458-.427c-.041-.663-.032-1.359.019-2.113a.463.463 0 01.49-.423.458.458 0 01.426.486c-.05.718-.06 1.373-.018 2zm.224-4.027a.454.454 0 01-.453.4c-.019 0-.037 0-.06-.005a.459.459 0 01-.399-.504l.22-1.755a.462.462 0 01.514-.395c.252.032.43.259.398.509l-.22 1.75zM79.438 6.219a.455.455 0 01-.383-.518c.03-.185.195-1.13.644-1.606a.46.46 0 01.648-.02c.185.171.194.459.02.642-.19.201-.352.777-.406 1.122a.458.458 0 01-.523.38zM62.73 8.483c-.088-.338-.306-.896-.516-1.078a.452.452 0 01-.042-.641.46.46 0 01.647-.042c.493.43.752 1.354.798 1.535a.454.454 0 01-.33.553.46.46 0 01-.558-.327z" fill="#FF6B09"/></svg>