<svg width="80" height="30" fill="none" xmlns="http://www.w3.org/2000/svg"><path d="M11.187 4.393v11.759H7.861v-4.586H3.326v4.586H0V4.393h3.326v4.418h4.535V4.393h3.326zM23.36 11.617c0 .022-.017.285-.05.789h-6.618c.134.47.392.834.772 1.092.392.246.88.37 1.462.37.436 0 .812-.062 1.125-.185.325-.123.65-.325.974-.605l1.68 1.747c-.884.985-2.178 1.478-3.88 1.478-1.064 0-2-.201-2.805-.605-.807-.403-1.434-.963-1.882-1.68-.437-.716-.655-1.528-.655-2.435 0-.896.213-1.697.638-2.402A4.56 4.56 0 0115.92 7.5c.761-.403 1.618-.605 2.57-.605.907 0 1.73.19 2.47.571.738.37 1.32.913 1.746 1.63.437.705.655 1.545.655 2.52zm-4.854-2.453c-.493 0-.907.14-1.243.42-.325.28-.532.66-.622 1.142h3.73c-.09-.481-.303-.862-.639-1.142-.325-.28-.734-.42-1.226-.42zM25.504 3.688h3.191v12.464h-3.191V3.688zM31.441 3.688h3.192v12.464h-3.192V3.688z" fill="#111518"/><path d="M3.625 24.64v3.5h-.81v-1.435h-1.59v1.435h-.81v-3.5h.81v1.38h1.59v-1.38h.81zm4.438 2.85v.65h-2.71v-3.5h2.645v.65h-1.84v.76h1.625v.63H6.158v.81h1.905zm1.545-2.85h.81v2.84h1.755v.66H9.608v-3.5zm3.917 0h.81v2.84h1.755v.66h-2.565v-3.5zm3.918 0h.81v3.5h-.81v-3.5zm3.69 3.56c-.276 0-.545-.037-.805-.11a1.918 1.918 0 01-.62-.295l.275-.61c.15.11.329.198.535.265.207.066.414.1.62.1.23 0 .4-.034.51-.1.11-.07.165-.162.165-.275a.251.251 0 00-.1-.205.685.685 0 00-.25-.135c-.1-.034-.236-.07-.41-.11a5.72 5.72 0 01-.655-.19 1.084 1.084 0 01-.44-.305c-.12-.14-.18-.327-.18-.56 0-.204.055-.387.165-.55.11-.167.275-.299.495-.395.224-.097.495-.145.815-.145.224 0 .442.026.655.08.214.053.4.13.56.23l-.25.615a1.951 1.951 0 00-.97-.275c-.226 0-.395.036-.505.11a.337.337 0 00-.16.29c0 .12.062.21.185.27.127.056.319.113.575.17.267.063.485.126.655.19.17.063.315.163.435.3.124.136.185.321.185.555 0 .2-.056.383-.17.55-.11.163-.276.293-.5.39a2.05 2.05 0 01-.815.145zm6.149-3.56v3.5h-.81v-1.435h-1.59v1.435h-.81v-3.5h.81v1.38h1.59v-1.38h.81z" fill="#FF6B09"/><path d="M34.036 27.49v.65h-2.71v-3.5h2.645v.65h-1.84v.76h1.625v.63H32.13v.81h1.905zm4.754-2.85v3.5h-.665l-1.745-2.125v2.125h-.8v-3.5h.67l1.74 2.125V24.64h.8zm4.093 1.695h.74v1.42c-.19.143-.41.253-.66.33-.25.076-.501.115-.755.115-.363 0-.69-.077-.98-.23a1.773 1.773 0 01-.684-.645 1.805 1.805 0 01-.245-.935 1.717 1.717 0 01.935-1.575c.293-.157.623-.235.99-.235.306 0 .585.051.835.155.25.103.46.253.63.45l-.52.48a1.203 1.203 0 00-.905-.395c-.224 0-.422.046-.596.14a1.005 1.005 0 00-.404.395c-.097.17-.146.365-.146.585 0 .216.049.41.145.58.097.17.23.303.4.4.174.093.37.14.59.14.234 0 .444-.05.63-.15v-1.025zm2.393-1.695h.81v2.84h1.755v.66h-2.565v-3.5zm3.917 0h.81v3.5h-.81v-3.5zm3.691 3.56c-.276 0-.545-.037-.805-.11a1.92 1.92 0 01-.62-.295l.275-.61c.15.11.328.198.535.265.207.066.413.1.62.1.23 0 .4-.034.51-.1.11-.07.165-.162.165-.275a.25.25 0 00-.1-.205.683.683 0 00-.25-.135c-.1-.034-.236-.07-.41-.11a5.727 5.727 0 01-.655-.19 1.084 1.084 0 01-.44-.305c-.12-.14-.18-.327-.18-.56 0-.204.055-.387.165-.55.11-.167.275-.299.495-.395.224-.097.495-.145.815-.145.224 0 .442.026.655.08.214.053.4.13.56.23l-.25.615a1.95 1.95 0 00-.97-.275c-.227 0-.395.036-.505.11a.337.337 0 00-.16.29c0 .12.062.21.185.27.127.056.319.113.575.17.267.063.485.126.655.19.17.063.315.163.435.3.123.136.185.321.185.555 0 .2-.056.383-.17.55-.11.163-.276.293-.5.39a2.05 2.05 0 01-.815.145zm6.149-3.56v3.5h-.81v-1.435h-1.59v1.435h-.81v-3.5h.81v1.38h1.59v-1.38h.81zM66.295 13.582v2.57h-9.44V4.393h9.222v2.57h-5.93v1.982h5.224v2.486h-5.224v2.15h6.148zM80 4.393v11.759h-2.738l-5.19-6.266v6.266h-3.26V4.393h2.739l5.19 6.266V4.393H80z" fill="#111518"/><g clip-path="url(#clip0)" fill="#FF6B09"><path d="M52.15 10.05c-.171-.384-.408-.763-.754-1.2-.874-1.1-1.14-3.548-1.143-3.572a.296.296 0 00-.205-.25.3.3 0 00-.314.086c-1.042 1.166-.604 2.966-.367 3.685.065.197.136.429.187.664.385 1.9-.359 2.76-.533 2.934-.17.047-.285.023-.391-.091-.367-.403-.489-1.721-.317-3.44.036-.349.027-.663-.024-.957-.362-2.111-1.69-3.466-2.028-3.94-.93-1.375-1.025-3.663-1.028-3.683a.296.296 0 00-.462-.232c-1.551 1.054-1.418 3.594-1.202 5.013.05.329.148.663.317 1.086.601 1.513-.118 3.466-.124 3.483-.006.018-.012.032-.015.05-.092.482-.246.77-.418.77a.202.202 0 01-.056-.01c-.21-.043-.32-.266-.323-.46-.012-2.505-2.526-3.348-2.552-3.357a.295.295 0 00-.314.088.289.289 0 00-.042.323c.03.062.125.332.06 1.286a10.971 10.971 0 01-.465 2.52 12.275 12.275 0 00-.498 3.885c.46 5.002 7.653 5.878 11.922 3.06.468-.308.85-.66 1.131-1.048 1.575-2.173.649-5.125-.041-6.693zm-10.94 4.778a.293.293 0 01-.28.309h-.017a.295.295 0 01-.296-.276c-.027-.43-.02-.879.012-1.366a.299.299 0 01.317-.273.296.296 0 01.275.314 9.473 9.473 0 00-.012 1.292zm.144-2.602a.294.294 0 01-.293.259c-.012 0-.024 0-.038-.003a.296.296 0 01-.258-.326l.142-1.134a.299.299 0 01.332-.255c.163.02.278.167.257.329l-.142 1.13zM50.147 4.018a.294.294 0 01-.247-.335c.019-.12.126-.73.416-1.037a.297.297 0 01.418-.014c.12.111.126.297.014.416-.123.13-.228.502-.263.725a.296.296 0 01-.338.245zM39.352 5.48c-.057-.218-.197-.578-.333-.696a.292.292 0 01-.027-.414.297.297 0 01.418-.027c.319.277.486.875.516.992a.294.294 0 01-.213.357.297.297 0 01-.36-.211z"/></g><defs><clipPath id="clip0"><path fill="#fff" transform="translate(38.88)" d="M0 0h14.214v19.382H0z"/></clipPath></defs></svg>